<svg xmlns="http://www.w3.org/2000/svg" viewBox="0 0 61.21 66.32"><defs><style>.cls-1{fill:#fff;}</style></defs><title>icon--white</title><g id="Layer_2" data-name="Layer 2"><g id="brand"><g id="icon--white"><path class="cls-1" d="M54,33.14l-.2-.19c0,.24.09.38.1.52a3,3,0,0,1,0,.61,3.31,3.31,0,0,1-1,2,13.14,13.14,0,0,1-1.32,1.15c-.8.61-1.61,1.21-2.44,1.78-3.11,2.14-6.34,4.12-9.59,6Q34,48.37,28.28,51.38c-1.9,1-3.83,1.92-5.78,2.82a16.43,16.43,0,0,1-6.6,1.51,20.28,20.28,0,0,1-3.79-.26A21,21,0,0,1,7.2,54c-.29-.13-.58-.28-.87-.41a1,1,0,0,0-.26,0l.35.26,1.34.9c4.27,2.8,8.68,5.37,13.2,7.76,1.86,1,3.73,1.92,5.66,2.76a15.83,15.83,0,0,0,2.72.95,2.78,2.78,0,0,0,1.3,0,13.51,13.51,0,0,0,1.67-.52c1.32-.51,2.6-1.11,3.87-1.73,3.54-1.74,7-3.66,10.36-5.66,2.64-1.56,5.24-3.18,7.75-4.94a26.85,26.85,0,0,0,2.57-2,12.4,12.4,0,0,0,.94-1,2.35,2.35,0,0,0,.54-1.09A16.9,16.9,0,0,0,58.14,41,21.71,21.71,0,0,0,54,33.14Z"/><path class="cls-1" d="M61.21,31.06a112.16,112.16,0,0,0-.54-11.28,16.8,16.8,0,0,0-.54-3,2.85,2.85,0,0,0-.69-1.2A14.28,14.28,0,0,0,58,14.36c-1.09-.86-2.22-1.66-3.38-2.42A160,160,0,0,0,39.76,3.2C38.11,2.34,36.43,1.52,34.7.81A12.71,12.71,0,0,0,32.59.1,3.08,3.08,0,0,0,31,.12a16.87,16.87,0,0,0-5.22,2.69,20.72,20.72,0,0,0-6.62,9.13,1.31,1.31,0,0,0,0,.22l.27-.22a2.53,2.53,0,0,1,.95-.53,3.4,3.4,0,0,1,1.9,0,15.24,15.24,0,0,1,1.45.49c1.31.5,2.57,1.11,3.83,1.72,3.26,1.6,6.45,3.33,9.61,5.12,3.9,2.21,7.75,4.49,11.5,6.93,1.54,1,3.05,2,4.56,3.09a15.43,15.43,0,0,1,3.22,3,20.3,20.3,0,0,1,4,8.87,13.7,13.7,0,0,1,.28,2.21c0,.11,0,.24.13.33,0-.08,0-.12,0-.16.08-1.31.18-2.62.24-3.93C61.21,36.4,61.23,33.73,61.21,31.06Z"/><path class="cls-1" d="M14.75,53.24c.79,0,1.57-.08,2.36-.15.39,0,.78-.11,1.26-.18L18,52.76a2.58,2.58,0,0,1-1-.65,3.88,3.88,0,0,1-.61-.85,4.83,4.83,0,0,1-.44-1.37,25.67,25.67,0,0,1-.42-3.08c-.18-1.9-.28-3.81-.35-5.72-.06-1.47-.09-2.95-.12-4.42-.11-4.38-.06-8.75.08-13.13.08-2.7.26-5.39.49-8.08,0-.49.1-1,.17-1.48a16.26,16.26,0,0,1,1.77-5.19A20.6,20.6,0,0,1,24,1.52c.1-.07.24-.12.29-.3l-.11,0-1.26.61A161.05,161.05,0,0,0,8.22,10.22c-1.61,1-3.2,2.09-4.71,3.26A14.92,14.92,0,0,0,1.8,15a2.6,2.6,0,0,0-.67,1.11c-.15.55-.28,1.1-.38,1.66a37.46,37.46,0,0,0-.42,3.78q-.21,2.79-.27,5.6C0,31.37,0,35.62.2,39.86c.1,1.79.22,3.58.46,5.36A13.42,13.42,0,0,0,1,47,3.22,3.22,0,0,0,2.2,48.86l.1.09a16.7,16.7,0,0,0,6.27,3.46A20.09,20.09,0,0,0,14.75,53.24Z"/></g></g></g></svg>